<?xml version="1.0" standalone="no"?>
<!DOCTYPE svg PUBLIC "-//W3C//DTD SVG 20010904//EN"
 "http://www.w3.org/TR/2001/REC-SVG-20010904/DTD/svg10.dtd">
<svg version="1.0" xmlns="http://www.w3.org/2000/svg"
 width="336.000000pt" height="149.000000pt" viewBox="0 0 336.000000 149.000000"
 preserveAspectRatio="xMidYMid meet">
<metadata>
Created by potrace 1.16, written by Peter Selinger 2001-2019
</metadata>
<g transform="translate(0.000000,149.000000) scale(0.100000,-0.100000)"
fill="#000000" stroke="none">
<path d="M2300 749 l-5 -246 69 -24 c37 -12 70 -29 73 -36 7 -19 -59 -203 -73
-203 -6 0 -67 20 -135 44 -113 40 -124 46 -122 68 8 90 4 125 -14 132 -7 3
-13 10 -13 16 0 6 -7 18 -16 27 -8 9 -13 21 -10 29 5 14 -30 23 -269 68 -101
20 -133 22 -142 13 -16 -17 -66 -288 -55 -299 18 -18 368 -89 451 -92 44 -1
46 0 55 34 l8 36 129 -44 c71 -24 135 -42 143 -39 14 5 76 176 76 209 0 15
-27 28 -127 63 -10 3 -13 66 -15 247 l-3 243 -5 -246z m-444 -149 l171 -32 31
-52 c26 -41 29 -52 17 -54 -9 -2 -24 2 -33 10 -15 12 -16 11 -3 -4 7 -10 24
-18 37 -18 12 0 25 -4 28 -8 8 -14 -26 -183 -38 -188 -12 -4 -463 80 -471 88
-6 6 43 276 52 291 2 4 12 6 21 3 10 -2 94 -19 188 -36z"/>
</g>
</svg>
